<svg xmlns="http://www.w3.org/2000/svg" width="22.384" height="25.582" viewBox="0 0 22.384 25.582">
  <path id="Icon_awesome-discord" data-name="Icon awesome-discord" d="M14.85,12.151a1.309,1.309,0,1,1-1.3-1.42A1.363,1.363,0,0,1,14.85,12.151Zm-5.973-1.42a1.425,1.425,0,0,0,0,2.84,1.363,1.363,0,0,0,1.3-1.42A1.355,1.355,0,0,0,8.877,10.732Zm13.507-8.1V25.582c-3.222-2.848-2.192-1.905-5.935-5.385l.678,2.366H2.622A2.628,2.628,0,0,1,0,19.928V2.635A2.628,2.628,0,0,1,2.622,0h17.14A2.628,2.628,0,0,1,22.384,2.635ZM18.739,14.761A17.129,17.129,0,0,0,16.9,7.3,6.325,6.325,0,0,0,13.3,5.961l-.179.2A8.513,8.513,0,0,1,16.309,7.79a10.868,10.868,0,0,0-9.555-.371C6.28,7.636,6,7.79,6,7.79A8.629,8.629,0,0,1,9.363,6.114l-.128-.153A6.325,6.325,0,0,0,5.641,7.3,17.129,17.129,0,0,0,3.8,14.761a4.638,4.638,0,0,0,3.9,1.944s.473-.576.857-1.062a3.978,3.978,0,0,1-2.238-1.509c.188.132.5.3.524.32a9.324,9.324,0,0,0,7.982.448,7.32,7.32,0,0,0,1.471-.755,4.036,4.036,0,0,1-2.315,1.522c.384.486.844,1.036.844,1.036A4.676,4.676,0,0,0,18.739,14.761Z" fill="#5869ea"/>
</svg>
