<svg xmlns="http://www.w3.org/2000/svg" width="21.885" height="21.885" viewBox="0 0 21.885 21.885">
  <path id="Icon_simple-instagram" data-name="Icon simple-instagram" d="M10.692,0c-2.9,0-3.267.013-4.408.064a7.884,7.884,0,0,0-2.6.5A5.236,5.236,0,0,0,1.795,1.795,5.217,5.217,0,0,0,.561,3.689a7.861,7.861,0,0,0-.5,2.6C.011,7.425,0,7.788,0,10.692S.013,13.96.064,15.1a7.889,7.889,0,0,0,.5,2.6A5.244,5.244,0,0,0,1.795,19.59a5.229,5.229,0,0,0,1.894,1.233,7.894,7.894,0,0,0,2.6.5c1.141.053,1.5.064,4.408.064s3.267-.013,4.408-.064a7.912,7.912,0,0,0,2.6-.5A5.464,5.464,0,0,0,20.823,17.7a7.889,7.889,0,0,0,.5-2.6c.053-1.141.064-1.5.064-4.408s-.013-3.267-.064-4.408a7.907,7.907,0,0,0-.5-2.6A5.248,5.248,0,0,0,19.59,1.795,5.21,5.21,0,0,0,17.7.561a7.866,7.866,0,0,0-2.6-.5C13.96.011,13.6,0,10.692,0Zm0,1.925c2.854,0,3.194.014,4.322.063A5.891,5.891,0,0,1,17,2.358a3.519,3.519,0,0,1,2.03,2.029A5.9,5.9,0,0,1,19.4,6.371c.051,1.128.062,1.467.062,4.322s-.013,3.194-.066,4.322A6.017,6.017,0,0,1,19.017,17a3.4,3.4,0,0,1-.8,1.231,3.336,3.336,0,0,1-1.23.8A5.947,5.947,0,0,1,15,19.4c-1.135.051-1.469.062-4.33.062s-3.2-.013-4.33-.066a6.063,6.063,0,0,1-1.992-.375,3.311,3.311,0,0,1-1.229-.8,3.247,3.247,0,0,1-.8-1.23A6.068,6.068,0,0,1,1.939,15c-.04-1.123-.054-1.469-.054-4.316s.014-3.2.054-4.331a6.061,6.061,0,0,1,.374-1.991,3.17,3.17,0,0,1,.8-1.231,3.163,3.163,0,0,1,1.229-.8,5.918,5.918,0,0,1,1.979-.375c1.136-.04,1.47-.053,4.33-.053l.04.027Zm0,3.277a5.491,5.491,0,1,0,5.491,5.491A5.49,5.49,0,0,0,10.692,5.2Zm0,9.055a3.564,3.564,0,1,1,3.564-3.564A3.563,3.563,0,0,1,10.692,14.257Zm6.991-9.271A1.283,1.283,0,1,1,16.4,3.7,1.284,1.284,0,0,1,17.683,4.985Z" transform="translate(0.25 0.25)" stroke="#000" stroke-width="0.5"/>
</svg>
