<svg width="35" height="31" viewBox="0 0 35 31" fill="none"
  xmlns="http://www.w3.org/2000/svg">
  <path d="M34.1532 6.35283C33.6102 5.10966 32.8271 3.98311 31.848 3.03624C30.8681 2.08654 29.7127 1.33184 28.4448 0.813155C27.13 0.273179 25.7199 -0.0032116 24.2962 2.81545e-05C22.2989 2.81545e-05 20.3501 0.540778 18.6567 1.56219C18.2515 1.80653 17.8666 2.0749 17.502 2.36731C17.1374 2.0749 16.7525 1.80653 16.3474 1.56219C14.6539 0.540778 12.7052 2.81545e-05 10.7078 2.81545e-05C9.26958 2.81545e-05 7.8759 0.272406 6.5592 0.813155C5.28706 1.33388 4.14052 2.08292 3.15603 3.03624C2.17558 3.98204 1.39237 5.10886 0.850792 6.35283C0.287649 7.64663 0 9.02053 0 10.4345C0 11.7683 0.275495 13.1583 0.822432 14.5722C1.28024 15.7539 1.93656 16.9796 2.7752 18.2173C4.10406 20.176 5.93123 22.2188 8.20001 24.2897C11.9597 27.7225 15.6829 30.0937 15.8409 30.1899L16.8011 30.7987C17.2265 31.0671 17.7734 31.0671 18.1988 30.7987L19.159 30.1899C19.317 30.0897 23.0362 27.7225 26.7999 24.2897C29.0687 22.2188 30.8959 20.176 32.2248 18.2173C33.0634 16.9796 33.7238 15.7539 34.1775 14.5722C34.7245 13.1583 35 11.7683 35 10.4345C35.004 9.02053 34.7164 7.64663 34.1532 6.35283V6.35283Z" fill="#F4CF0D"/>
</svg>
