<svg width="52" height="52" viewBox="0 0 52 52" fill="none"
  xmlns="http://www.w3.org/2000/svg">
  <path fill-rule="evenodd" clip-rule="evenodd" d="M32.5 45.5C32.5 47.2239 31.8152 48.8772 30.5962 50.0962C29.3772 51.3152 27.7239 52 26 52C24.2761 52 22.6228 51.3152 21.4038 50.0962C20.1848 48.8772 19.5 47.2239 19.5 45.5C19.5 43.7761 20.1848 42.1228 21.4038 40.9038C22.6228 39.6848 24.2761 39 26 39C27.7239 39 29.3772 39.6848 30.5962 40.9038C31.8152 42.1228 32.5 43.7761 32.5 45.5V45.5ZM38.285 16.7667C37.828 16.3103 37.2084 16.0539 36.5625 16.0539C35.9166 16.0539 35.297 16.3103 34.84 16.7667L28.4375 23.1693V2.4375C28.4375 1.79103 28.1807 1.17105 27.7236 0.713927C27.2665 0.256807 26.6465 0 26 0C25.3535 0 24.7335 0.256807 24.2764 0.713927C23.8193 1.17105 23.5625 1.79103 23.5625 2.4375V23.1693L17.16 16.7667C16.6979 16.3362 16.0868 16.1018 15.4553 16.1129C14.8238 16.1241 14.2213 16.3799 13.7747 16.8265C13.3281 17.2731 13.0723 17.8756 13.0612 18.5071C13.05 19.1385 13.2844 19.7497 13.715 20.2117L24.2775 30.7742L26 32.5L27.7225 30.7775L38.285 20.215C38.5115 19.9886 38.6912 19.7199 38.8138 19.424C38.9364 19.1282 38.9995 18.8111 38.9995 18.4909C38.9995 18.1706 38.9364 17.8536 38.8138 17.5577C38.6912 17.2619 38.5115 16.9931 38.285 16.7667V16.7667Z" fill="#161513"/>
</svg>
