<svg width="189" height="135" viewBox="0 0 189 135" fill="none"
  xmlns="http://www.w3.org/2000/svg">
  <path d="M176.856 27.3C177.862 27.0772 178.84 26.7418 179.772 26.3003C182.482 25.0205 184.333 22.418 185.383 19.5931C186.25 16.9914 186.291 14.1852 185.498 11.5598C185.07 9.92369 184.347 8.37931 183.365 7.00228C182.073 5.23334 180.28 3.8921 178.219 3.15156C176.27 2.47297 174.199 2.21783 172.144 2.40316C170.089 2.5885 168.097 3.21005 166.302 4.22633C165.29 4.89285 164.492 5.83696 164.002 6.94558C163.456 8.02248 163.098 9.08574 162.405 9.97267C160.769 12.064 161.055 14.9606 161.333 17.2722C161.553 19.7318 162.656 22.0283 164.439 23.7365C165.35 24.6634 166.419 25.4204 167.596 25.972C169.586 26.7126 171.393 26.9375 172.918 27.3666C174.179 27.561 175.462 27.5744 176.726 27.4066C176.779 27.3852 176.823 27.3485 176.855 27.3013L175.669 21.4025C175.396 21.318 175.18 21.4575 174.916 21.4545C174.646 21.4765 174.375 21.631 174.127 21.5519C173.828 21.462 173.589 21.2258 173.272 21.211C172.763 21.2354 172.245 21.1784 171.517 21.2362C170.948 21.2281 170.394 21.0459 169.932 20.7143C169.315 20.3715 169.048 19.7579 168.612 19.1884C168.128 18.6086 167.514 17.8685 167.503 17.0447C167.461 15.8714 166.972 14.308 167.779 13.1277C168.151 12.6237 168.095 11.7634 168.749 11.4251C169.491 11.0524 169.737 10.0178 170.644 9.86602C171.632 9.7047 172.428 9.0786 173.433 9.2124C174.28 9.33953 175.15 8.99391 175.873 9.70403C176.159 9.97709 176.507 9.83885 176.81 10.0354C177.81 10.805 179.075 11.0994 179.59 12.2971C179.902 13.0203 180.052 13.8032 180.03 14.5907C180.009 15.0636 180.238 15.4834 179.978 15.9581C179.693 16.4273 179.902 16.8166 179.714 17.2008C179.38 17.8987 179.353 18.6613 178.791 19.178C178.246 19.6191 177.98 20.2518 177.406 20.5804C176.873 20.959 176.275 21.2365 175.642 21.3988L176.856 27.3Z" fill="white"/>
  <path fill-rule="evenodd" clip-rule="evenodd" d="M36.3556 81.6506L36.9058 80.2536L36.8932 80.9175L36.8858 81.9496C36.8938 82.1498 36.9046 82.3586 36.9142 82.5631C36.921 82.7695 36.9319 82.9774 36.9427 83.1766C37.0735 84.6467 37.3896 86.0943 37.8836 87.485C38.8083 90.0141 40.1258 92.3817 41.7877 94.5006L41.9625 94.7402C43.3167 96.4483 44.841 98.0143 46.5118 99.4142C46.4158 99.4373 46.32 99.4615 46.2236 99.4885C43.4665 100.205 40.9218 101.574 38.8036 103.479C36.4204 105.691 34.4561 108.315 33.0053 111.225C32.9444 110.897 32.8187 110.584 32.6354 110.305C32.5591 110.173 32.5089 110.028 32.4877 109.877C32.3893 109.317 32.2587 108.764 32.0966 108.219C31.7974 107.318 31.6399 106.376 31.6299 105.427C31.6607 105.118 31.6039 104.807 31.466 104.53C31.3281 104.252 31.1146 104.019 30.8502 103.857C30.1469 103.548 29.9787 102.956 29.8568 102.294C29.8502 102.249 29.8467 102.204 29.8435 102.159C29.8299 101.985 29.8181 101.819 29.6097 101.712C29.4918 101.65 29.3708 101.592 29.2516 101.534C28.5965 101.223 27.9723 100.925 28.0131 99.9932C27.9984 99.9192 27.96 99.8521 27.9037 99.8019C27.8475 99.7518 27.7763 99.7213 27.7012 99.7152C27.5316 99.6883 27.3752 99.6074 27.2552 99.4847C27.1957 99.4319 27.1318 99.3845 27.0641 99.3428C26.8806 99.2274 26.7077 99.098 26.5361 98.9693C26.0745 98.5459 25.4897 98.2811 24.867 98.2134C24.6281 98.2158 24.6042 98.0781 24.5712 97.8595C24.5128 97.3841 24.3403 96.9298 24.0685 96.5355C23.7966 96.1412 23.4334 95.8184 23.0099 95.5947C22.3176 95.2393 21.6853 94.7777 21.1358 94.2268C23.3323 93.4775 25.4449 92.5018 27.4396 91.3154C29.6007 90.0266 31.558 88.4232 33.2471 86.5582C34.1155 85.5951 34.8733 84.5379 35.5064 83.4062C35.7187 83.0364 35.9086 82.6542 36.0748 82.2616C36.1671 82.0539 36.2588 81.8487 36.3556 81.6506ZM14.5088 89.4061L14.8717 89.335L14.8937 89.3315C16.1514 89.1501 17.3957 88.8857 18.6185 88.5403C20.7279 87.9065 22.7751 87.0812 24.7343 86.0749L24.7994 86.0381C26.6399 85.1166 28.3135 83.8939 29.751 82.4205C30.3951 81.732 30.9575 80.9714 31.4272 80.1539L31.7752 79.5122L32.2029 78.6221C32.4884 78.0248 32.7797 77.3978 33.0705 76.7732L33.072 76.766C34.2354 74.2829 35.4491 71.8106 36.4741 69.8545C37.453 68.008 37.9937 68.567 38.7335 69.3323C38.9244 69.5369 39.1265 69.7308 39.3389 69.913C39.6108 70.0243 39.8928 70.109 40.1811 70.1661C41.5616 70.406 41.6775 71.358 41.6533 72.0955C41.6513 74.8513 41.7361 77.5729 41.8717 80.3054L41.9638 81.9954C41.9992 82.1887 42.0253 82.3846 42.0513 82.5815C42.0884 82.8617 42.1256 83.1435 42.1911 83.4211C42.4182 84.371 42.7466 85.2937 43.1704 86.1736C44.0764 87.9816 45.2406 89.6482 46.6263 91.1212C49.4961 94.1153 52.7961 96.665 56.4175 98.6862C57.0579 99.0661 57.6668 99.4968 58.2383 99.974L58.4505 100.152C59.517 101.045 60.6209 101.969 59.6932 104.232L59.6562 104.322C59.6512 104.367 59.6461 104.413 59.6397 104.459C59.3669 106.387 58.865 106.293 57.8717 106.108C57.4504 106.018 57.0213 105.968 56.5905 105.961C54.7571 105.975 52.9264 105.817 51.1226 105.489L50.1588 105.284C50.0388 105.258 49.9155 105.25 49.793 105.26C49.2287 105.264 48.6661 105.322 48.1129 105.434V105.434L47.9757 105.455C45.9542 105.91 44.0687 106.836 42.4723 108.157C40.7387 109.553 39.2599 111.239 38.1015 113.139C36.7785 115.306 35.6166 117.566 34.6252 119.902C33.4043 122.532 32.1329 125.152 31.0559 127.229C30.3627 128.556 29.8896 128.719 29.4277 128.439C29.3184 128.513 29.2045 128.579 29.0866 128.638C28.0483 129.16 27.3994 128.97 27.2062 128.133C27.17 127.858 27.1631 127.58 27.1855 127.303C27.1927 127.138 27.1998 126.971 27.1965 126.805C27.217 126.616 27.2111 126.424 27.1791 126.235C27.0862 126.032 27.0434 125.809 27.0545 125.586C27.0106 125.381 26.994 125.171 27.0049 124.962C27.0295 124.355 26.9903 123.747 26.888 123.148C26.8398 122.792 26.7917 122.435 26.7699 122.076C26.753 121.834 26.7216 121.589 26.6917 121.344C26.6508 121.017 26.6095 120.69 26.602 120.371C26.6138 120.048 26.6553 119.727 26.726 119.412C26.7973 119.091 26.84 118.765 26.8535 118.436C26.8558 117.765 26.8929 117.094 26.9647 116.426C26.9782 116.277 26.9917 116.128 27.0042 115.978C27.0347 115.618 27.0426 115.274 27.0502 114.915C27.0518 114.858 27.0532 114.801 27.0542 114.743C27.0172 114.418 26.9749 114.119 26.9127 113.786C26.86 113.601 26.7974 113.418 26.7251 113.24C26.4771 112.755 26.4111 112.197 26.5391 111.667C26.5796 111.477 26.4222 111.339 26.2743 111.206L26.2449 111.18C26.1306 111.101 26.0418 110.99 25.9892 110.861C25.9366 110.733 25.9225 110.591 25.9487 110.455C25.9792 110.259 25.9469 110.058 25.8564 109.881C25.766 109.705 25.622 109.561 25.4451 109.471C25.21 109.339 25.0124 109.15 24.8711 108.92C24.7297 108.691 24.6492 108.429 24.6371 108.16C24.6456 107.706 24.3207 107.446 24.0045 107.196C23.8452 107.08 23.7009 106.946 23.575 106.795C23.3873 106.556 23.2096 106.299 23.0321 106.043C22.8547 105.787 22.677 105.53 22.4893 105.292C22.1378 104.908 21.7364 104.574 21.2958 104.297C21.2379 104.258 21.1778 104.223 21.1158 104.191C20.8952 104.074 20.7065 103.973 20.8165 103.558C20.8367 103.505 20.8453 103.447 20.8416 103.39C20.838 103.333 20.8223 103.277 20.7955 103.226C20.7687 103.175 20.7314 103.131 20.6861 103.096C20.6409 103.06 20.5886 103.035 20.5329 103.021C20.2099 102.905 19.9259 102.701 19.7127 102.432C19.511 102.181 19.2484 101.986 18.95 101.865C18.4276 101.647 17.9671 101.304 17.6094 100.866C17.4199 100.661 17.2183 100.467 17.0058 100.286L16.9186 100.22C16.7456 100.071 16.5415 99.9622 16.3211 99.9019L16.2727 99.8916C15.9337 99.8195 15.5802 99.7443 15.5611 99.2365C15.5521 99.1551 15.5396 99.0994 15.4665 99.0575C14.9242 98.7985 14.4202 98.466 13.9688 98.0692C13.5299 97.6838 13.0409 97.3597 12.515 97.1055C12.163 96.9555 11.8275 96.7697 11.5137 96.5509C11.1537 96.297 10.7636 96.0887 10.3522 95.9308C9.30353 95.5465 8.30741 95.0315 7.3874 94.3982L7.21996 94.312C6.20311 93.6189 6.17575 92.7383 7.03829 91.1724C7.57688 90.2389 8.29111 89.4186 9.14153 88.7566C9.27653 88.6245 9.44298 88.5291 9.62515 88.4792C9.80731 88.4294 9.99918 88.4269 10.1826 88.4718C10.3369 88.5236 10.4953 88.5623 10.6561 88.5877C10.8636 88.5966 11.0663 88.6534 11.2482 88.7535C11.4302 88.8537 11.5866 88.9946 11.7051 89.1652C12.0049 89.6263 12.5376 89.7396 13.1976 89.3758C13.3869 89.2306 13.6201 89.1545 13.8586 89.1601C14.0971 89.1657 14.3265 89.2527 14.5087 89.4066L14.5088 89.4061Z" fill="white"/>
</svg>
