<svg xmlns="http://www.w3.org/2000/svg" width="1745.112" height="296.754" viewBox="0 0 1745.112 296.754">
  <g id="Group_167" data-name="Group 167" transform="matrix(0.999, 0.035, -0.035, 0.999, 67.553, -868.073)">
    <path id="Path_61" data-name="Path 61" d="M425.046,75.128C597.93,73.275,631.254-19.233,830.728-25.916s162.093,72.9,418.129,70.223C1345.383,43.3,1466.173-4.377,1565.7-12.12,1730.87-24.971,1856.836,0,1856.836,0V50s-128.276-18.587-279.119-5.11c-106.356,9.5-220.05,52-325.82,53.5-254.867,3.6-221.589-72.991-423.11-68.749S572.226,126.678,420.03,122.85C278.447,122.85,121.8,69.572,121.8,69.572l4.647-44.21S322.456,75.128,425.046,75.128Z" transform="matrix(0.998, -0.07, 0.07, 0.998, -148.852, 964.957)" fill="#d29dff"/>
    <path id="Path_62" data-name="Path 62" d="M425.046,75.128C590.858,77.856,633-13.4,832.476-20.086s160.345,67.07,416.382,64.393C1345.383,43.3,1466.173-4.377,1565.7-12.12,1730.87-24.971,1856.836,0,1856.836,0V50s-128.276-18.587-279.119-5.11c-106.356,9.5-220.05,52-325.82,53.5-254.867,3.6-213.252-79.1-414.773-74.854S572.226,126.678,420.03,122.85C278.447,122.85,121.8,69.572,121.8,69.572l4.647-44.21S322.456,75.128,425.046,75.128Z" transform="matrix(0.998, -0.07, 0.07, 0.998, -150.361, 1008.156)" fill="#6ebafc"/>
    <path id="Path_63" data-name="Path 63" d="M425.046,75.128C584.513,77.112,633.456-14.595,832.93-21.278s159.891,68.261,415.927,65.585C1345.383,43.3,1466.173-4.377,1565.7-12.12,1730.87-24.971,1856.836,0,1856.836,0V50s-128.276-18.587-279.119-5.11c-106.356,9.5-220.05,52-325.82,53.5-254.867,3.6-214.606-72.748-416.126-68.505s-263.545,96.8-415.741,92.968C278.447,122.85,121.8,69.572,121.8,69.572l4.647-44.21S322.456,75.128,425.046,75.128Z" transform="matrix(0.998, -0.07, 0.07, 0.998, -151.896, 1052.129)" fill="#fec56f"/>
  </g>
</svg>
