<svg xmlns="http://www.w3.org/2000/svg" width="20.716" height="20.199" viewBox="0 0 20.716 20.199">
  <path id="Icon_awesome-github" data-name="Icon awesome-github" d="M6.929,16.827c0,.084-.1.15-.217.15-.138.013-.234-.054-.234-.15s.1-.15.217-.15S6.929,16.731,6.929,16.827Zm-1.3-.188c-.029.084.054.18.18.2a.2.2,0,0,0,.259-.084c.025-.084-.054-.18-.18-.217A.214.214,0,0,0,5.63,16.639Zm1.846-.071c-.121.029-.2.109-.192.2s.121.138.246.109.2-.109.192-.192S7.6,16.555,7.476,16.568ZM10.225.563A10.015,10.015,0,0,0,0,10.754a10.471,10.471,0,0,0,7.08,9.991c.535.1.723-.234.723-.505s-.013-1.687-.013-2.565c0,0-2.924.627-3.538-1.245,0,0-.476-1.215-1.161-1.529,0,0-.956-.656.067-.643A2.2,2.2,0,0,1,4.77,15.336a2.208,2.208,0,0,0,3.045.873A2.321,2.321,0,0,1,8.483,14.8c-2.335-.259-4.69-.6-4.69-4.615a3.165,3.165,0,0,1,.986-2.46A3.946,3.946,0,0,1,4.887,4.89c.873-.271,2.882,1.128,2.882,1.128a9.867,9.867,0,0,1,5.246,0s2.009-1.4,2.882-1.128a3.944,3.944,0,0,1,.109,2.836,3.247,3.247,0,0,1,1.078,2.46c0,4.031-2.46,4.352-4.795,4.615A2.47,2.47,0,0,1,13,16.739c0,1.408-.013,3.149-.013,3.492,0,.271.192.6.723.505a10.375,10.375,0,0,0,7.009-9.982A10.241,10.241,0,0,0,10.225.563ZM4.06,14.968c-.054.042-.042.138.029.217s.163.1.217.042.042-.138-.029-.217S4.114,14.914,4.06,14.968Zm-.451-.338c-.029.054.013.121.1.163a.124.124,0,0,0,.18-.029c.029-.054-.013-.121-.1-.163C3.7,14.575,3.638,14.588,3.609,14.63Zm1.353,1.487c-.067.054-.042.18.054.259.1.1.217.109.271.042s.029-.18-.054-.259C5.142,16.062,5.016,16.05,4.962,16.117ZM4.486,15.5c-.067.042-.067.15,0,.246s.18.138.234.1a.191.191,0,0,0,0-.259C4.661,15.49,4.553,15.448,4.486,15.5Z" transform="translate(0 -0.563)"/>
</svg>
