<svg xmlns="http://www.w3.org/2000/svg"
  xmlns:xlink="http://www.w3.org/1999/xlink" width="25.642" height="25.636" viewBox="0 0 25.642 25.636">
  <defs>
    <linearGradient id="linear-gradient" y1="0.141" x2="1" y2="1" gradientUnits="objectBoundingBox">
      <stop offset="0" stop-color="#18309a"/>
      <stop offset="0.123" stop-color="#62348b"/>
      <stop offset="0.232" stop-color="#9b2a4a"/>
      <stop offset="0.424" stop-color="#f0ab22"/>
      <stop offset="0.66" stop-color="#f0aa65"/>
      <stop offset="0.877" stop-color="#e56e44"/>
      <stop offset="1" stop-color="#ca4075"/>
    </linearGradient>
  </defs>
  <path id="Icon_awesome-instagram" data-name="Icon awesome-instagram" d="M12.818,8.483a6.573,6.573,0,1,0,6.573,6.573A6.562,6.562,0,0,0,12.818,8.483Zm0,10.846a4.273,4.273,0,1,1,4.273-4.273,4.281,4.281,0,0,1-4.273,4.273ZM21.193,8.214A1.533,1.533,0,1,1,19.66,6.681,1.53,1.53,0,0,1,21.193,8.214ZM25.546,9.77A7.587,7.587,0,0,0,23.476,4.4,7.637,7.637,0,0,0,18.1,2.328c-2.117-.12-8.46-.12-10.577,0A7.626,7.626,0,0,0,2.156,4.393,7.612,7.612,0,0,0,.085,9.764c-.12,2.117-.12,8.461,0,10.577a7.587,7.587,0,0,0,2.071,5.372,7.646,7.646,0,0,0,5.371,2.071c2.117.12,8.46.12,10.577,0a7.587,7.587,0,0,0,5.371-2.071,7.637,7.637,0,0,0,2.071-5.372c.12-2.117.12-8.455,0-10.571ZM22.812,22.613a4.326,4.326,0,0,1-2.437,2.437c-1.688.669-5.692.515-7.557.515s-5.875.149-7.557-.515a4.326,4.326,0,0,1-2.437-2.437c-.669-1.688-.515-5.692-.515-7.557S2.161,9.181,2.825,7.5A4.326,4.326,0,0,1,5.262,5.062c1.688-.669,5.692-.515,7.557-.515s5.875-.149,7.557.515A4.326,4.326,0,0,1,22.812,7.5c.669,1.688.515,5.692.515,7.557S23.481,20.931,22.812,22.613Z" transform="translate(0.005 -2.238)" fill="url(#linear-gradient)"/>
</svg>
