<svg xmlns="http://www.w3.org/2000/svg" width="18.712" height="18.712" viewBox="0 0 18.712 18.712">
  <path id="Icon_awesome-linkedin" data-name="Icon awesome-linkedin" d="M17.375,2.25H1.332A1.342,1.342,0,0,0,0,3.6V19.613a1.342,1.342,0,0,0,1.332,1.349H17.375a1.346,1.346,0,0,0,1.337-1.349V3.6A1.346,1.346,0,0,0,17.375,2.25ZM5.655,18.289H2.882V9.359H5.659v8.93ZM4.269,8.139A1.608,1.608,0,1,1,5.877,6.531,1.609,1.609,0,0,1,4.269,8.139ZM16.051,18.289H13.278V13.945c0-1.036-.021-2.368-1.441-2.368-1.445,0-1.667,1.128-1.667,2.293v4.419H7.4V9.359h2.661v1.22H10.1a2.921,2.921,0,0,1,2.627-1.441c2.807,0,3.329,1.85,3.329,4.256Z" transform="translate(0 -2.25)"/>
</svg>
