<svg xmlns="http://www.w3.org/2000/svg" width="27.015" height="29.896" viewBox="0 0 27.015 29.896">
  <g id="Group_46" data-name="Group 46" transform="translate(-601.989 -3666.688)">
    <path id="Path_17" data-name="Path 17" d="M23.166,10.816c3.256-7.853-.538-9.778-4.612-9.518s-3.03,2.271-7.267,1.986S5.308.122,3.9.007-.436,1.254.055,5.569s1.582,5.67,3.638,7.479,3.085,1.367,3.981,1.246S23.166,10.816,23.166,10.816Z" transform="translate(605.235 3666.688) rotate(13)"/>
    <path id="Path_18" data-name="Path 18" d="M-478.524,6838.758c2.219-2.577,4.553,0,4.553,0" transform="translate(1097.922 -3151.377)" fill="none" stroke="#000" stroke-linecap="round" stroke-width="2.5"/>
    <path id="Path_20" data-name="Path 20" d="M-478.524,6838.758c2.219-2.577,4.553,0,4.553,0" transform="translate(1086.34 -3151.377)" fill="none" stroke="#000" stroke-linecap="round" stroke-width="2.5"/>
    <path id="Path_19" data-name="Path 19" d="M.127,1.168A9.717,9.717,0,0,0,10.6,0" transform="translate(611.114 3692.035) rotate(5)" fill="none" stroke="#000" stroke-linecap="round" stroke-width="2.5"/>
  </g>
</svg>
