<svg xmlns="http://www.w3.org/2000/svg" width="16.867" height="16.867" viewBox="0 0 16.867 16.867">
  <path id="Icon_ionic-md-sunny" data-name="Icon ionic-md-sunny" d="M11.486,2.25H9.878V4.66h1.608V2.25ZM16.346,3.9,14.9,5.341l1.126,1.126,1.446-1.446L16.346,3.9ZM5.021,3.9,3.9,5.021,5.341,6.467,6.467,5.341,5.021,3.9Zm5.663,1.969A4.819,4.819,0,1,0,15.5,10.684a4.833,4.833,0,0,0-4.819-4.819Zm8.434,4.017h-2.41v1.608h2.41V9.882Zm-14.458,0H2.25v1.608H4.66V9.882ZM16.026,14.9,14.9,16.026l1.446,1.446,1.126-1.126L16.026,14.9Zm-10.685,0L3.9,16.346l1.126,1.126,1.446-1.446L5.341,14.9Zm6.144,1.807H9.878v2.41h1.608v-2.41Z" transform="translate(-2.25 -2.25)" fill="#fff"/>
</svg>
