<svg xmlns="http://www.w3.org/2000/svg" width="21.385" height="17.368" viewBox="0 0 21.385 17.368">
  <path id="Icon_awesome-twitter" data-name="Icon awesome-twitter" d="M19.187,7.709c.014.19.014.38.014.57A12.384,12.384,0,0,1,6.73,20.749,12.385,12.385,0,0,1,0,18.782a9.067,9.067,0,0,0,1.058.054A8.777,8.777,0,0,0,6.5,16.963a4.391,4.391,0,0,1-4.1-3.039,5.527,5.527,0,0,0,.828.068,4.635,4.635,0,0,0,1.153-.149,4.383,4.383,0,0,1-3.514-4.3V9.487a4.414,4.414,0,0,0,1.981.556A4.389,4.389,0,0,1,1.493,4.181a12.458,12.458,0,0,0,9.037,4.586,4.948,4.948,0,0,1-.109-1,4.387,4.387,0,0,1,7.585-3,8.629,8.629,0,0,0,2.782-1.058,4.371,4.371,0,0,1-1.927,2.415,8.786,8.786,0,0,0,2.524-.678,9.421,9.421,0,0,1-2.2,2.266Z" transform="translate(0 -3.381)"/>
</svg>
